<svg version="1.1" id="Layer_1" xmlns="http://www.w3.org/2000/svg" xmlns:xlink="http://www.w3.org/1999/xlink" x="0px" y="0px"
	 width="100%" viewBox="0 0 180 180" enable-background="new 0 0 180 180" xml:space="preserve">
<path fill="#4439AC" opacity="1.000000" stroke="none" 
	d="
M1.000001,172.000000 
	C1.000000,118.312439 1.000000,64.624878 1.324164,10.668537 
	C4.432219,7.266506 7.216109,4.133253 10.000000,1.000000 
	C63.687561,1.000000 117.375122,1.000000 171.331421,1.324148 
	C174.733429,4.432197 177.866714,7.216097 181.000000,9.999999 
	C181.000000,63.687561 181.000000,117.375122 180.675827,171.331512 
	C177.567764,174.733566 174.783890,177.866776 172.000000,181.000000 
	C118.312439,181.000000 64.624878,181.000000 10.668576,180.675842 
	C7.266559,177.567780 4.133281,174.783890 1.000001,172.000000 
M109.055115,77.904564 
	C109.964539,80.681480 110.873955,83.458405 111.938278,86.708328 
	C109.226799,86.708328 107.799278,86.708328 106.206680,86.708328 
	C106.206680,83.808327 106.483841,81.124603 106.138260,78.523628 
	C105.680748,75.080276 102.850487,74.840141 100.456940,75.826248 
	C99.190208,76.348129 97.889755,78.473083 97.849052,79.909584 
	C97.779900,82.350037 99.001892,84.802597 99.128929,87.278412 
	C99.362701,91.834396 99.195648,96.410965 99.195648,101.403641 
	C102.316406,101.188736 104.222252,101.057487 106.153305,100.924507 
	C106.153305,97.700653 106.153305,94.954712 106.153305,91.837654 
	C107.944412,91.973900 109.485786,92.091141 110.976707,92.204552 
	C111.131058,94.689629 110.829636,96.840523 111.524406,98.597488 
	C111.999451,99.798759 113.926903,101.253395 115.091721,101.161324 
	C116.864906,101.021164 118.674896,99.815712 120.169464,98.671181 
	C120.585106,98.352882 120.111618,95.787811 119.760574,95.719452 
	C115.546249,94.898834 117.609001,92.337006 117.956512,90.125496 
	C118.342384,87.669853 118.782555,85.145065 118.589020,82.698639 
	C118.407814,80.407921 118.019295,76.848671 116.658653,76.245201 
	C114.742409,75.395317 111.845383,76.756760 109.055115,77.904564 
M164.832520,101.263680 
	C169.686295,98.913696 173.239243,87.665779 169.958725,83.687393 
	C168.849167,82.341797 165.940125,81.793686 163.994064,82.031548 
	C162.298508,82.238785 160.800934,84.065666 159.261520,85.144897 
	C158.819611,81.682076 156.716293,80.456665 153.374756,81.892532 
	C150.126297,83.288422 151.332901,85.214462 152.856598,87.350204 
	C153.524918,88.286987 153.541901,89.816887 153.542694,91.077667 
	C153.545227,95.059937 153.100220,99.068863 153.449265,103.012535 
	C153.604904,104.771141 154.951080,107.444489 156.283752,107.816780 
	C157.895721,108.267082 160.065887,106.719223 161.994476,106.036102 
	C161.038040,104.532463 160.081604,103.028816 158.832626,101.065247 
	C160.702148,101.166870 162.385559,101.258377 164.832520,101.263680 
M13.179229,92.808426 
	C12.548173,95.071220 10.871880,97.704132 11.513539,99.516266 
	C12.685290,102.825455 15.044471,100.967606 17.057468,99.554131 
	C17.584463,99.184090 18.814785,99.937210 19.730556,99.976280 
	C22.365028,100.088661 25.754198,101.099327 27.416489,99.851540 
	C28.891581,98.744286 28.686462,95.089317 28.732822,92.550011 
	C28.749847,91.617455 27.511106,90.174706 26.562008,89.881592 
	C25.919971,89.683311 24.746449,91.043114 23.877277,91.784180 
	C22.775881,92.723251 21.742054,93.741577 20.679087,94.725723 
	C20.325914,93.199951 19.621853,91.658463 19.689344,90.151535 
	C19.852352,86.511940 20.638126,82.886284 20.607752,79.259743 
	C20.597477,78.033096 18.998886,75.920166 17.934355,75.790810 
	C15.775225,75.528458 13.444891,76.202293 11.280222,76.822235 
	C10.796292,76.960823 10.261854,79.085205 10.497076,79.253769 
	C15.297735,82.693954 12.522976,87.694603 13.179229,92.808426 
M70.410500,90.377136 
	C66.866890,92.571991 66.528282,95.800262 68.376289,98.993973 
	C70.258781,102.247276 73.131020,101.968422 76.106842,100.042503 
	C76.601204,99.722549 77.823578,100.765984 78.636192,100.652794 
	C80.744331,100.359177 82.887917,99.956772 84.833534,99.152885 
	C85.243645,98.983444 85.070160,96.865303 84.806236,95.728500 
	C84.426010,94.090736 83.182785,92.510567 83.237930,90.938446 
	C83.521751,82.846153 79.634834,79.752724 71.744080,81.813644 
	C67.912712,82.814331 67.165077,84.611664 69.236610,87.622566 
	C71.920822,87.839920 74.421738,88.042427 76.922646,88.244934 
	C76.904434,88.781830 76.886215,89.318718 76.867996,89.855614 
	C74.977722,89.945587 73.087456,90.035568 70.410500,90.377136 
M30.023003,90.658371 
	C30.287258,97.588303 32.172226,100.566017 36.728832,101.251671 
	C42.220360,102.078011 46.389622,99.140938 47.201141,93.874359 
	C48.330009,86.548286 46.194706,82.547707 40.595783,81.498955 
	C34.898556,80.431793 31.303215,83.268311 30.023003,90.658371 
M134.433685,81.968880 
	C133.296967,81.739761 132.142029,81.250504 131.026825,81.328606 
	C127.145668,81.600418 123.976791,82.977440 122.631134,87.111855 
	C121.069038,91.911240 122.252686,97.468582 125.639786,99.839615 
	C129.051697,102.228004 132.586151,101.877686 135.846970,99.627350 
	C136.867096,98.923340 137.314346,97.389214 138.023819,96.235062 
	C136.786423,95.980835 135.556671,95.677429 134.309830,95.484100 
	C132.512009,95.205330 130.701782,95.006485 128.811493,94.762520 
	C132.652649,92.751801 136.129440,91.664665 138.323532,89.357613 
	C139.024353,88.620705 136.324448,84.649605 134.433685,81.968880 
M63.060463,99.770355 
	C63.678654,98.427719 64.296852,97.085083 64.915047,95.742455 
	C63.740135,95.581078 62.566090,95.413063 61.390099,95.259979 
	C59.903896,95.066521 57.455708,95.329292 57.122696,94.609100 
	C56.355618,92.950165 56.548653,90.814095 56.605904,88.879135 
	C56.609875,88.744926 58.837589,88.310951 59.794907,88.661545 
	C61.037342,89.116554 62.042698,90.218925 63.150105,91.042641 
	C63.871578,89.459671 65.039009,87.913559 65.173889,86.282089 
	C65.282455,84.968834 64.523994,82.942223 63.486469,82.293198 
	C60.027370,80.129364 54.023014,81.399399 51.581123,84.391785 
	C48.839825,87.751083 48.633995,94.539391 51.347145,98.000832 
	C54.373009,101.861252 58.171967,102.353432 63.060463,99.770355 
M94.244987,95.126709 
	C93.975166,94.366302 93.422569,93.583313 93.481194,92.849136 
	C93.875450,87.912048 94.600929,82.990913 94.738121,78.051254 
	C94.771904,76.834816 93.184753,74.732292 92.062050,74.519699 
	C90.329582,74.191666 88.257004,74.921028 86.542030,75.682426 
	C86.016640,75.915680 85.931313,77.764023 86.094055,78.802292 
	C86.522438,81.535286 87.491104,84.206940 87.702454,86.944862 
	C87.982285,90.569954 87.502708,94.259560 87.868462,97.868843 
	C87.992126,99.089142 89.775352,101.149078 90.659821,101.078033 
	C92.597473,100.922409 94.517509,99.764732 96.239311,98.687813 
	C96.456421,98.552032 95.438606,96.441811 94.244987,95.126709 
M150.666611,96.538109 
	C147.846603,95.340454 147.504684,93.336105 148.003113,90.440849 
	C148.704239,86.368225 149.018356,82.171562 148.889847,78.046883 
	C148.848785,76.728622 147.016678,74.603302 145.752762,74.398552 
	C144.071121,74.126144 142.017349,75.161186 140.418427,76.124275 
	C140.057800,76.341484 140.918854,78.578239 141.209091,79.887199 
	C141.480301,81.110298 141.946686,82.332413 141.967300,83.560997 
	C142.034210,87.550743 141.655045,91.569252 142.020706,95.523689 
	C142.201965,97.483696 143.197311,100.438538 144.595917,100.991402 
	C147.440521,102.115860 150.005783,100.602966 150.666611,96.538109 
z"/>
<path fill="#000000" opacity="1.000000" stroke="none" 
	d="
M172.491058,181.000000 
	C174.783890,177.866776 177.567764,174.733566 180.675827,171.800171 
	C181.000000,174.917358 181.000000,177.834702 181.000000,181.000000 
	C178.330002,181.000000 175.656052,181.000000 172.491058,181.000000 
z"/>
<path fill="#000000" opacity="1.000000" stroke="none" 
	d="
M1.000001,172.491058 
	C4.133281,174.783890 7.266559,177.567780 10.199919,180.675842 
	C7.082646,181.000000 4.165292,181.000000 1.000000,181.000000 
	C1.000000,178.330002 1.000000,175.656052 1.000001,172.491058 
z"/>
<path fill="#000000" opacity="1.000000" stroke="none" 
	d="
M181.000000,9.508951 
	C177.866714,7.216097 174.733429,4.432197 171.800079,1.324148 
	C174.917358,1.000000 177.834702,1.000000 181.000000,1.000000 
	C181.000000,3.670005 181.000000,6.343954 181.000000,9.508951 
z"/>
<path fill="#000000" opacity="1.000000" stroke="none" 
	d="
M9.508951,1.000000 
	C7.216109,4.133253 4.432219,7.266506 1.324164,10.199880 
	C1.000000,7.082645 1.000000,4.165290 1.000000,1.000000 
	C3.670005,1.000000 6.343954,1.000000 9.508951,1.000000 
z"/>
<path fill="#F3F2FA" opacity="1.000000" stroke="none" 
	d="
M109.211426,77.538605 
	C111.845383,76.756760 114.742409,75.395317 116.658653,76.245201 
	C118.019295,76.848671 118.407814,80.407921 118.589020,82.698639 
	C118.782555,85.145065 118.342384,87.669853 117.956512,90.125496 
	C117.609001,92.337006 115.546249,94.898834 119.760574,95.719452 
	C120.111618,95.787811 120.585106,98.352882 120.169464,98.671181 
	C118.674896,99.815712 116.864906,101.021164 115.091721,101.161324 
	C113.926903,101.253395 111.999451,99.798759 111.524406,98.597488 
	C110.829636,96.840523 111.131058,94.689629 110.976707,92.204552 
	C109.485786,92.091141 107.944412,91.973900 106.153305,91.837654 
	C106.153305,94.954712 106.153305,97.700653 106.153305,100.924507 
	C104.222252,101.057487 102.316406,101.188736 99.195648,101.403641 
	C99.195648,96.410965 99.362701,91.834396 99.128929,87.278412 
	C99.001892,84.802597 97.779900,82.350037 97.849052,79.909584 
	C97.889755,78.473083 99.190208,76.348129 100.456940,75.826248 
	C102.850487,74.840141 105.680748,75.080276 106.138260,78.523628 
	C106.483841,81.124603 106.206680,83.808327 106.206680,86.708328 
	C107.799278,86.708328 109.226799,86.708328 111.938278,86.708328 
	C110.873955,83.458405 109.964539,80.681480 109.211426,77.538605 
z"/>
<path fill="#F6F5FB" opacity="1.000000" stroke="none" 
	d="
M164.450745,101.306778 
	C162.385559,101.258377 160.702148,101.166870 158.832626,101.065247 
	C160.081604,103.028816 161.038040,104.532463 161.994476,106.036102 
	C160.065887,106.719223 157.895721,108.267082 156.283752,107.816780 
	C154.951080,107.444489 153.604904,104.771141 153.449265,103.012535 
	C153.100220,99.068863 153.545227,95.059937 153.542694,91.077667 
	C153.541901,89.816887 153.524918,88.286987 152.856598,87.350204 
	C151.332901,85.214462 150.126297,83.288422 153.374756,81.892532 
	C156.716293,80.456665 158.819611,81.682076 159.261520,85.144897 
	C160.800934,84.065666 162.298508,82.238785 163.994064,82.031548 
	C165.940125,81.793686 168.849167,82.341797 169.958725,83.687393 
	C173.239243,87.665779 169.686295,98.913696 164.450745,101.306778 
M162.363129,89.716866 
	C158.807022,95.617241 158.833282,95.789787 164.272583,96.398575 
	C163.824081,93.871628 163.415543,91.569794 162.363129,89.716866 
z"/>
<path fill="#F4F3FA" opacity="1.000000" stroke="none" 
	d="
M13.208977,92.375702 
	C12.522976,87.694603 15.297735,82.693954 10.497076,79.253769 
	C10.261854,79.085205 10.796292,76.960823 11.280222,76.822235 
	C13.444891,76.202293 15.775225,75.528458 17.934355,75.790810 
	C18.998886,75.920166 20.597477,78.033096 20.607752,79.259743 
	C20.638126,82.886284 19.852352,86.511940 19.689344,90.151535 
	C19.621853,91.658463 20.325914,93.199951 20.679089,94.725723 
	C21.742054,93.741577 22.775881,92.723251 23.877277,91.784180 
	C24.746449,91.043114 25.919971,89.683311 26.562008,89.881592 
	C27.511106,90.174706 28.749847,91.617455 28.732822,92.550011 
	C28.686462,95.089317 28.891581,98.744286 27.416489,99.851540 
	C25.754198,101.099327 22.365028,100.088661 19.730556,99.976280 
	C18.814785,99.937210 17.584463,99.184090 17.057468,99.554131 
	C15.044471,100.967606 12.685290,102.825455 11.513539,99.516266 
	C10.871880,97.704132 12.548173,95.071220 13.208977,92.375702 
z"/>
<path fill="#F3F2FA" opacity="1.000000" stroke="none" 
	d="
M70.803848,90.251343 
	C73.087456,90.035568 74.977722,89.945587 76.867996,89.855614 
	C76.886215,89.318718 76.904434,88.781830 76.922646,88.244934 
	C74.421738,88.042427 71.920822,87.839920 69.236610,87.622566 
	C67.165077,84.611664 67.912712,82.814331 71.744080,81.813644 
	C79.634834,79.752724 83.521751,82.846153 83.237930,90.938446 
	C83.182785,92.510567 84.426010,94.090736 84.806236,95.728500 
	C85.070160,96.865303 85.243645,98.983444 84.833534,99.152885 
	C82.887917,99.956772 80.744331,100.359177 78.636192,100.652794 
	C77.823578,100.765984 76.601204,99.722549 76.106842,100.042503 
	C73.131020,101.968422 70.258781,102.247276 68.376289,98.993973 
	C66.528282,95.800262 66.866890,92.571991 70.803848,90.251343 
z"/>
<path fill="#F6F5FB" opacity="1.000000" stroke="none" 
	d="
M30.037056,90.238235 
	C31.303215,83.268311 34.898556,80.431793 40.595783,81.498955 
	C46.194706,82.547707 48.330009,86.548286 47.201141,93.874359 
	C46.389622,99.140938 42.220360,102.078011 36.728832,101.251671 
	C32.172226,100.566017 30.287258,97.588303 30.037056,90.238235 
M40.885643,90.782158 
	C40.153671,89.654663 39.421700,88.527168 38.689724,87.399673 
	C37.991154,88.546402 36.972065,89.619034 36.684978,90.860893 
	C36.403015,92.080551 36.710800,93.515671 37.065605,94.769714 
	C37.240650,95.388420 38.087521,96.192200 38.662640,96.218941 
	C39.259106,96.246681 40.222107,95.557480 40.440933,94.965881 
	C40.829605,93.915077 40.777431,92.701225 40.885643,90.782158 
z"/>
<path fill="#F5F5FB" opacity="1.000000" stroke="none" 
	d="
M134.807114,82.063606 
	C136.324448,84.649605 139.024353,88.620705 138.323532,89.357613 
	C136.129440,91.664665 132.652649,92.751801 128.811493,94.762520 
	C130.701782,95.006485 132.512009,95.205330 134.309830,95.484100 
	C135.556671,95.677429 136.786423,95.980835 138.023819,96.235062 
	C137.314346,97.389214 136.867096,98.923340 135.846970,99.627350 
	C132.586151,101.877686 129.051697,102.228004 125.639786,99.839615 
	C122.252686,97.468582 121.069038,91.911240 122.631134,87.111855 
	C123.976791,82.977440 127.145668,81.600418 131.026825,81.328606 
	C132.142029,81.250504 133.296967,81.739761 134.807114,82.063606 
z"/>
<path fill="#F6F6FB" opacity="1.000000" stroke="none" 
	d="
M62.742828,99.936661 
	C58.171967,102.353432 54.373009,101.861252 51.347145,98.000832 
	C48.633995,94.539391 48.839825,87.751083 51.581123,84.391785 
	C54.023014,81.399399 60.027370,80.129364 63.486469,82.293198 
	C64.523994,82.942223 65.282455,84.968834 65.173889,86.282089 
	C65.039009,87.913559 63.871578,89.459671 63.150101,91.042641 
	C62.042698,90.218925 61.037342,89.116554 59.794907,88.661545 
	C58.837589,88.310951 56.609875,88.744926 56.605904,88.879135 
	C56.548653,90.814095 56.355618,92.950165 57.122696,94.609100 
	C57.455708,95.329292 59.903896,95.066521 61.390099,95.259979 
	C62.566090,95.413063 63.740135,95.581078 64.915039,95.742455 
	C64.296852,97.085083 63.678654,98.427719 62.742828,99.936661 
z"/>
<path fill="#F7F6FB" opacity="1.000000" stroke="none" 
	d="
M94.618973,95.186539 
	C95.438606,96.441811 96.456421,98.552032 96.239311,98.687813 
	C94.517509,99.764732 92.597473,100.922409 90.659821,101.078033 
	C89.775352,101.149078 87.992126,99.089142 87.868462,97.868843 
	C87.502708,94.259560 87.982285,90.569954 87.702454,86.944862 
	C87.491104,84.206940 86.522438,81.535286 86.094055,78.802292 
	C85.931313,77.764023 86.016640,75.915680 86.542030,75.682426 
	C88.257004,74.921028 90.329582,74.191666 92.062050,74.519699 
	C93.184753,74.732292 94.771904,76.834816 94.738121,78.051254 
	C94.600929,82.990913 93.875450,87.912048 93.481194,92.849136 
	C93.422569,93.583313 93.975166,94.366302 94.618973,95.186539 
z"/>
<path fill="#F5F5FB" opacity="1.000000" stroke="none" 
	d="
M150.794525,96.916817 
	C150.005783,100.602966 147.440521,102.115860 144.595917,100.991402 
	C143.197311,100.438538 142.201965,97.483696 142.020706,95.523689 
	C141.655045,91.569252 142.034210,87.550743 141.967300,83.560997 
	C141.946686,82.332413 141.480301,81.110298 141.209091,79.887199 
	C140.918854,78.578239 140.057800,76.341484 140.418427,76.124275 
	C142.017349,75.161186 144.071121,74.126144 145.752762,74.398552 
	C147.016678,74.603302 148.848785,76.728622 148.889847,78.046883 
	C149.018356,82.171562 148.704239,86.368225 148.003113,90.440849 
	C147.504684,93.336105 147.846603,95.340454 150.794525,96.916817 
z"/>
<path fill="#5950B6" opacity="1.000000" stroke="none" 
	d="
M162.685059,89.492416 
	C163.415543,91.569794 163.824081,93.871628 164.272583,96.398575 
	C158.833282,95.789787 158.807022,95.617241 162.685059,89.492416 
z"/>
<path fill="#554BB4" opacity="1.000000" stroke="none" 
	d="
M40.897659,91.168869 
	C40.777431,92.701225 40.829605,93.915077 40.440933,94.965881 
	C40.222107,95.557480 39.259106,96.246681 38.662640,96.218941 
	C38.087521,96.192200 37.240650,95.388420 37.065605,94.769714 
	C36.710800,93.515671 36.403015,92.080551 36.684978,90.860893 
	C36.972065,89.619034 37.991154,88.546402 38.689728,87.399673 
	C39.421700,88.527168 40.153671,89.654663 40.897659,91.168869 
z"/>
</svg>